<svg width="514" height="574" viewBox="0 0 514 574" fill="none" xmlns="http://www.w3.org/2000/svg">
<rect width="514" height="574" rx="31" fill="#46454F"/>
<g clip-path="url(#clip0_121_32)">
<path fill-rule="evenodd" clip-rule="evenodd" d="M106.899 64.2594C106.899 64.2594 164.29 48.8337 185.291 106.326C185.291 106.326 196.486 121.751 196.486 103.516C196.486 103.516 179.689 36.2096 99.9318 53.0445C99.9318 53.0445 90.1349 61.4578 106.932 64.2594H106.899ZM137.696 252.153C-75.0725 191.834 46.7188 12.3289 144.696 36.1679C246.877 52.9945 217.486 197.421 217.486 197.421C265.073 196.02 246.877 240.888 246.877 240.888C322.464 281.554 395.254 250.711 395.254 250.711C421.848 250.711 410.653 273.14 410.653 273.14C374.262 302.591 281.878 288.558 281.878 288.558C281.878 288.558 360.27 339.037 364.465 364.277C367.262 389.525 340.668 381.112 340.668 381.112C309.87 326.43 245.479 303.992 245.479 303.992L308.472 414.765C311.269 444.216 286.073 431.592 286.073 431.592L217.486 319.409C209.088 392.327 242.682 441.397 242.682 441.397C237.08 472.249 214.69 455.422 214.69 455.422C182.494 406.344 183.892 344.649 183.892 344.649C176.892 400.732 118.136 455.422 118.136 455.422C92.9399 462.435 97.135 434.385 97.135 434.385C171.324 365.678 160.128 294.161 160.128 294.161C108.339 289.95 137.729 252.095 137.729 252.095L137.696 252.153ZM217.478 222.686C216.08 226.855 218.876 232.508 224.478 233.909C230.08 235.31 235.665 232.475 237.08 226.855C237.08 221.243 234.275 215.632 228.682 214.231C223.088 212.83 218.885 217.032 217.486 222.644L217.478 222.686ZM164.29 271.765C165.688 267.595 162.892 261.95 157.29 260.55C151.688 259.149 146.095 261.95 144.688 267.562C143.281 273.174 147.493 278.777 153.086 280.186C157.248 281.587 162.883 277.376 164.282 271.773L164.29 271.765Z" fill="#363740"/>
<circle cx="288.5" cy="168.5" r="18.5" fill="#363740"/>
<circle cx="365.5" cy="99.5" r="45.5" fill="#363740"/>
</g>
<defs>
<clipPath id="clip0_121_32">
<rect width="393" height="426" fill="white" transform="translate(20 34)"/>
</clipPath>
</defs>
</svg>
