<svg id="Слой_1" data-name="Слой 1" xmlns="http://www.w3.org/2000/svg" viewBox="0 0 1096.45 185.1"><path d="M138,209.11V253H100V115.77h93q30.43,0,44.64,12.73,12.18,11.25,12.17,32.83v2q0,21.4-12.36,32.65-14.21,13.1-44.45,13.1Zm0-30.62h52.2q20.1,0,20.11-15.68v-.74q0-7.38-5-11.53t-15.13-4.15H138Z" transform="translate(-100 -91.84)"/><path d="M523.53,199.05q7.74,8.77,7.75,23.52v14.21c0,5.29.25,8.85.74,10.7a22.9,22.9,0,0,0,1.47,4.61V253H494.2a26.7,26.7,0,0,1-.74-2.95,28.59,28.59,0,0,1-.55-6.64V232.16q0-13.64-5.81-19.73t-19.83-6.09H417.83V253h-38V115.77h92.42q34.68,0,48.7,12.73,9.4,8.67,9.41,24v1.84q0,12.56-7.84,21.12T501.4,187Q515.79,190.29,523.53,199.05Zm-105.7-23.88h52.94q10.71,0,15.69-4.43,4.05-3.51,4.06-10.15v-.37q0-6.63-4.06-10.14Q481.84,146,470.77,146H417.83Z" transform="translate(-100 -91.84)"/><path d="M680.51,253l-11.26-25.46H595.1L584,253H545.85l60.87-137.24h50.92L721.28,253Zm-24-53.68-24.9-55.89-24.17,55.89Z" transform="translate(-100 -91.84)"/><path d="M769.24,253V147.13H716.11V115.77H860.18v31.36H807.05V253Z" transform="translate(-100 -91.84)"/><path d="M885.63,115.77h125.62v29.88H923.08V168h85.4v31h-85.4v23.8h89.28V253H885.63Z" transform="translate(-100 -91.84)"/><path d="M1186.49,199.05q7.74,8.77,7.75,23.52v14.21c0,5.29.24,8.85.74,10.7a22.9,22.9,0,0,0,1.47,4.61V253h-39.29a26.7,26.7,0,0,1-.74-2.95,28,28,0,0,1-.55-6.64V232.16q0-13.64-5.81-19.73t-19.83-6.09h-49.44V253h-38V115.77h92.42q34.68,0,48.7,12.73,9.4,8.67,9.4,24v1.84q0,12.56-7.83,21.12T1164.36,187Q1178.75,190.29,1186.49,199.05Zm-105.7-23.88h52.94q10.69,0,15.68-4.43,4.06-3.51,4.06-10.15v-.37q0-6.63-4.06-10.14-4.61-4.07-15.68-4.06h-52.94Z" transform="translate(-100 -91.84)"/><path d="M328.29,114.46V251.7h-38V114.46Z" transform="translate(-100 -91.84)"/><circle cx="194.56" cy="17.29" r="17.29"/><circle cx="224.02" cy="17.29" r="17.29"/><circle cx="194.56" cy="167.81" r="17.29"/><circle cx="224.02" cy="167.81" r="17.29"/></svg>